<svg id="ae4ddc55-3b0e-4f6f-b087-041e3f976537" data-name="OBJECTS" xmlns="http://www.w3.org/2000/svg" xmlns:xlink="http://www.w3.org/1999/xlink" viewBox="0 0 660.27 421.38"><defs><style>.a42ab279-47e5-4bd0-955b-22a863a323e1,.aadb627f-0486-4a26-9163-28f23de4234b,.ab67ae43-73b1-41e0-8af3-2c2a9e923ab0,.ac21e7f5-ab71-4c8f-9eec-8a95358eac07,.b46b8b8d-bac1-4ce2-b310-42c0edf32f59,.bb4c7a55-1020-4b74-aa3a-6a97613b7e4b,.e90324ae-7e17-49c5-ba7c-d248401ce46e,.ec027844-539a-45de-bb57-3177e91edd24,.ecba43f4-315a-4a61-b270-04a1cef88543,.f7a86049-5f0f-434d-b8c8-22eb287164e2,.f7d5de06-aaa8-4d2c-96c5-47bfebeb907b,.feacbe8d-7b4e-4098-b610-538b0eb9f00d{fill:none;stroke-miterlimit:10;}.a42ab279-47e5-4bd0-955b-22a863a323e1,.ab67ae43-73b1-41e0-8af3-2c2a9e923ab0,.ac21e7f5-ab71-4c8f-9eec-8a95358eac07,.b46b8b8d-bac1-4ce2-b310-42c0edf32f59,.bb4c7a55-1020-4b74-aa3a-6a97613b7e4b,.e90324ae-7e17-49c5-ba7c-d248401ce46e,.ec027844-539a-45de-bb57-3177e91edd24,.ecba43f4-315a-4a61-b270-04a1cef88543,.f7a86049-5f0f-434d-b8c8-22eb287164e2,.f7d5de06-aaa8-4d2c-96c5-47bfebeb907b,.feacbe8d-7b4e-4098-b610-538b0eb9f00d{stroke:#90bbd4;}.b3da3a4b-b63f-4de1-95b5-408151803003{fill:#123861;}.a9d644c9-2367-41e0-b135-efb62dcfa4d9{fill:#3c7fae;}.f66891ab-d7cb-45b9-a8bf-3ce03faeb4fa{clip-path:url(#b85036a5-5ee9-47e8-8020-7888870557e2);}.f7a86049-5f0f-434d-b8c8-22eb287164e2{stroke-width:0.75px;}.b46b8b8d-bac1-4ce2-b310-42c0edf32f59{stroke-width:0.25px;}.fa93c30f-0649-4375-972a-165613141ae0{isolation:isolate;}.aadb627f-0486-4a26-9163-28f23de4234b,.feacbe8d-7b4e-4098-b610-538b0eb9f00d{stroke-width:0.5px;}.f7d5de06-aaa8-4d2c-96c5-47bfebeb907b{stroke-width:2px;}.a42ab279-47e5-4bd0-955b-22a863a323e1{stroke-width:1.8px;}.ac21e7f5-ab71-4c8f-9eec-8a95358eac07{stroke-width:1.6px;}.ab67ae43-73b1-41e0-8af3-2c2a9e923ab0{stroke-width:1.4px;}.ecba43f4-315a-4a61-b270-04a1cef88543{stroke-width:1.2px;}.aadb627f-0486-4a26-9163-28f23de4234b{stroke:#fff;}.bf61ab89-34f2-4bf2-8b60-bd7d24cd0622{clip-path:url(#b4e77adc-d720-4a25-92dc-cfa40088919d);}.bb4c7a55-1020-4b74-aa3a-6a97613b7e4b,.ec027844-539a-45de-bb57-3177e91edd24{stroke-width:3px;}.ec027844-539a-45de-bb57-3177e91edd24{stroke-linecap:round;stroke-dasharray:0 7;}.bf884328-92bf-4bae-b5e2-8f7d8e9017e8{fill:#90bbd4;}</style><clipPath id="b85036a5-5ee9-47e8-8020-7888870557e2" transform="translate(-41.44 -50.02)"><circle class="e90324ae-7e17-49c5-ba7c-d248401ce46e" cx="220.95" cy="205.96" r="148.64" transform="translate(-80.92 216.56) rotate(-45)"/></clipPath><clipPath id="b4e77adc-d720-4a25-92dc-cfa40088919d" transform="translate(-41.44 -50.02)"><polygon class="e90324ae-7e17-49c5-ba7c-d248401ce46e" points="316.96 362.49 299.58 379.87 282.2 362.49 261.58 383.11 278.96 400.49 261.58 417.87 282.2 438.49 299.58 421.11 316.96 438.49 337.58 417.87 320.2 400.49 337.58 383.11 316.96 362.49"/></clipPath></defs><title>5610297</title><circle class="b3da3a4b-b63f-4de1-95b5-408151803003" cx="432.77" cy="251.99" r="107.85"/><circle class="b3da3a4b-b63f-4de1-95b5-408151803003" cx="146.65" cy="350.46" r="53.27"/><rect class="a9d644c9-2367-41e0-b135-efb62dcfa4d9" x="580.33" y="211.61" width="14.85" height="14.85"/><rect class="a9d644c9-2367-41e0-b135-efb62dcfa4d9" x="595.36" y="196.58" width="14.85" height="14.85"/><rect class="a9d644c9-2367-41e0-b135-efb62dcfa4d9" x="610.39" y="181.55" width="14.85" height="14.85"/><rect class="a9d644c9-2367-41e0-b135-efb62dcfa4d9" x="625.42" y="166.52" width="14.85" height="14.85"/><rect class="a9d644c9-2367-41e0-b135-efb62dcfa4d9" x="640.45" y="151.49" width="14.85" height="14.85"/><circle class="a9d644c9-2367-41e0-b135-efb62dcfa4d9" cx="308.21" cy="71.06" r="71.06"/><circle class="a9d644c9-2367-41e0-b135-efb62dcfa4d9" cx="468.56" cy="357.3" r="39.18"/><g class="f66891ab-d7cb-45b9-a8bf-3ce03faeb4fa"><path class="f7a86049-5f0f-434d-b8c8-22eb287164e2" d="M68,82.06c31.3-2.55,60.19-13.93,91.73-16.61,22.3-1.9,44-7.06,66.39-7.75,60.3-1.87,121-.05,181.3,0" transform="translate(-41.44 -50.02)"/><path class="f7a86049-5f0f-434d-b8c8-22eb287164e2" d="M67.93,86.88c31-3,60.16-12.62,91.3-15.47,22.75-2.08,44.46-8.18,67.41-8.9,59.92-1.89,120.77.17,180.75.63" transform="translate(-41.44 -50.02)"/><path class="f7a86049-5f0f-434d-b8c8-22eb287164e2" d="M67.81,90.74c30.43-2.88,60.28-9.78,90.68-13.08C182.12,75.1,204.11,67.09,228,66.33c25.94-.81,51.38,3.81,77.25,4.08,34,.35,68-2.07,102.1-1.84" transform="translate(-41.44 -50.02)"/><path class="f7a86049-5f0f-434d-b8c8-22eb287164e2" d="M67.63,93.81C97.38,91.44,128,88,157.55,84.15c24.83-3.28,47.26-14,72.6-14.8,26-.77,50.73,6.94,76.54,8C340.29,78.72,373.8,74,407.39,74" transform="translate(-41.44 -50.02)"/><path class="f7a86049-5f0f-434d-b8c8-22eb287164e2" d="M67.41,96.25c29.29-1.56,60-1.48,89-5.43,26.39-3.59,49.26-18.4,76.37-19.08,26.2-.67,49.91,10.68,75.67,12.84,32.94,2.76,66-4.74,98.92-5.13" transform="translate(-41.44 -50.02)"/><path class="f7a86049-5f0f-434d-b8c8-22eb287164e2" d="M67.15,98.24c28.72-.54,59.62,4.28,88-.61,27.95-4.82,51.7-23.49,80.69-24,26.52-.44,48.95,14.87,74.66,18.38,32,4.36,64.84-6.25,96.86-7.15" transform="translate(-41.44 -50.02)"/><path class="f7a86049-5f0f-434d-b8c8-22eb287164e2" d="M66.87,99.94c28.41.61,58.79,10.48,87,4.58,29.4-6.15,54.52-29.13,85.32-29.24,27-.1,47.95,19.33,73.59,24.33,30.94,6,63.68-7.84,94.62-9.29" transform="translate(-41.44 -50.02)"/><path class="f7a86049-5f0f-434d-b8c8-22eb287164e2" d="M66.59,101.53c28.41,1.84,57.38,16.9,85.92,9.92,30.85-7.55,57.48-34.53,90.1-34.67,27.34-.11,47.11,24,72.47,30.47,29.76,7.64,62.52-9.5,92.31-11.49" transform="translate(-41.44 -50.02)"/><path class="f7a86049-5f0f-434d-b8c8-22eb287164e2" d="M66.3,103.16c28.72,3.11,55.5,23.32,84.87,15.2,32.12-8.88,60.57-40.06,94.81-40,27.76,0,46.33,28.55,71.38,36.52,28.65,9.12,61.35-11.15,90-13.66" transform="translate(-41.44 -50.02)"/><path class="f7a86049-5f0f-434d-b8c8-22eb287164e2" d="M66,105c29.19,4.33,53.32,29.46,83.86,20.19,33.23-10.09,63.6-45.36,99.27-45.09,28.19.21,45.61,33,70.35,42.25,27.73,10.42,60.15-12.78,87.88-15.74" transform="translate(-41.44 -50.02)"/><path class="f7a86049-5f0f-434d-b8c8-22eb287164e2" d="M65.8,107.26c29.71,5.4,51.06,35,82.91,24.68C182.91,120.83,215.08,81.8,252,82.3c28.67.39,44.91,37,69.41,47.4,27.09,11.5,59-14.32,86-17.63" transform="translate(-41.44 -50.02)"/><path class="f7a86049-5f0f-434d-b8c8-22eb287164e2" d="M65.6,110.06c30.26,6.19,48.92,39.71,82.09,28.45,16.85-5.72,33.13-17.21,48.17-26.35,16-9.74,38.47-27.48,58.48-27.11,29.23.53,44.2,40.43,68.63,51.71,26.74,12.36,57.89-15.71,84.42-19.25" transform="translate(-41.44 -50.02)"/><path class="f7a86049-5f0f-434d-b8c8-22eb287164e2" d="M65.46,113.59c30.82,6.56,47,43.18,81.41,31.27,17.31-6,34.11-18.24,49.47-27.82,16.18-10.1,39.26-28.94,59.7-28.51,29.93.64,43.43,43.06,68,55,26.69,12.9,57-16.92,83.3-20.55" transform="translate(-41.44 -50.02)"/><path class="f7a86049-5f0f-434d-b8c8-22eb287164e2" d="M65.38,118c31.44,6.39,45.52,45.13,80.91,32.93,17.59-6.07,34.81-18.94,50.31-28.78,16.36-10.38,39.54-29.69,60.34-29.23,30.8.68,42.58,44.68,67.71,56.86,27,13.09,56.31-17.89,82.74-21.41" transform="translate(-41.44 -50.02)"/><path class="f7a86049-5f0f-434d-b8c8-22eb287164e2" d="M65.28,123.37c31.32,6.42,45.6,45.06,80.78,32.78,17.67-6.17,34.95-18.84,50.63-28.63,16.42-10.25,39.75-29.47,60.47-29.2,30.9.41,42.32,44.93,67.43,57.06,27.29,13.19,56.14-18.18,82.8-21.56" transform="translate(-41.44 -50.02)"/><path class="f7a86049-5f0f-434d-b8c8-22eb287164e2" d="M64.64,129.14C95.46,135.69,111.73,172.05,146,160c17.73-6.23,35-17.95,51-27.38,16.53-9.69,40.51-28.51,60.89-28.35,30.2.23,42,44.47,66.36,56.52,27.28,13.48,56.42-18.18,83.15-21.57" transform="translate(-41.44 -50.02)"/><path class="f7a86049-5f0f-434d-b8c8-22eb287164e2" d="M63.48,135.16c30.63,6.23,48.89,39.2,82.31,27.91,17.87-6,35.22-16.7,51.73-25.55,16.82-9,41.46-27,61.62-26.75,29.5.37,40.89,43.69,64.58,55.67,27.16,13.73,57-18.35,83.67-21.75" transform="translate(-41.44 -50.02)"/><path class="f7a86049-5f0f-434d-b8c8-22eb287164e2" d="M61.9,141.41c30.58,5.49,51,34.22,83.7,24,18-5.62,35.62-15.13,52.59-23.22,17.26-8.23,42.57-25,62.6-24.52,28.83.75,39.22,42.59,62.25,54.5,27,13.94,57.72-18.65,84.35-22.07" transform="translate(-41.44 -50.02)"/><path class="f7a86049-5f0f-434d-b8c8-22eb287164e2" d="M60,147.82c30.59,4.45,53.38,28.31,85.39,19.48,18.24-5,36.12-13.3,53.57-20.48,17.81-7.32,43.72-22.66,63.73-21.75,28.24,1.28,37,41.29,59.56,53,26.87,14,58.51-19.05,85.15-22.53" transform="translate(-41.44 -50.02)"/><path class="f7a86049-5f0f-434d-b8c8-22eb287164e2" d="M57.86,154.34c30.57,3.22,55.9,21.82,87.26,14.49,18.48-4.32,36.69-11.29,54.6-17.42,18.45-6.31,44.87-19.95,64.94-18.57,28.38,2,33.67,40.59,56.68,51.25,28.22,13.07,58.23-19.39,86.05-23.09" transform="translate(-41.44 -50.02)"/><path class="f7a86049-5f0f-434d-b8c8-22eb287164e2" d="M55.62,160.92c28.83,1.74,56,14.71,85.12,10.05,24.18-3.87,47.89-11.78,71.49-18.11,15.88-4.25,37-13,53.71-11.08,29.06,3.36,31.78,39.83,56.82,49.6C350,202,380.59,170,407.39,166.44" transform="translate(-41.44 -50.02)"/><path class="f7a86049-5f0f-434d-b8c8-22eb287164e2" d="M53.34,167.52c29.14.53,57.85,8.18,87,4.64,24.43-3,48.58-8.89,72.69-13.69,16.41-3.27,37.59-10.55,54.5-8.3,28,3.72,30,37.77,54.12,47.28,27.13,10.71,59-22,85.73-25.58" transform="translate(-41.44 -50.02)"/><path class="f7a86049-5f0f-434d-b8c8-22eb287164e2" d="M51.15,174.07c29.58-.61,59.25,1.89,88.78-.56,24.66-2,49.19-6,73.71-9.19,16.93-2.23,38-8,55.14-5.46,26.89,3.95,28.59,35.52,51.78,44.67,27.12,10.71,60-22.56,86.83-26.22" transform="translate(-41.44 -50.02)"/><path class="f7a86049-5f0f-434d-b8c8-22eb287164e2" d="M49.13,180.54c30.14-1.62,60.21-3.95,90.36-5.32,24.84-1.12,49.65-3.07,74.45-4.73,17.41-1.16,38.2-5.38,55.58-2.66,25.84,4,27.62,33.12,50,41.78,27.29,10.58,60.94-23.12,87.89-26.86" transform="translate(-41.44 -50.02)"/><path class="f7a86049-5f0f-434d-b8c8-22eb287164e2" d="M47.38,186.87c30.72-2.4,60.79-9.1,91.67-9.41,24.94-.25,49.88-.28,74.82-.42,17.82-.09,38.1-2.8,55.76,0,24.84,4,27.22,30.57,48.87,38.61C346.23,226,380.08,192,407.39,188.19" transform="translate(-41.44 -50.02)"/><path class="f7a86049-5f0f-434d-b8c8-22eb287164e2" d="M46,193c31.24-2.86,61-13.28,92.59-12.59,42.27.92,88.61-.39,130.37,6.1,23.92,3.71,27.54,27.89,48.64,35.14,28.49,9.78,61.85-24.09,89.78-28" transform="translate(-41.44 -50.02)"/><path class="f7a86049-5f0f-434d-b8c8-22eb287164e2" d="M45.12,198.9c30.29-2.73,58.68-15.8,89.33-14.86,43.81,1.34,90.12,6.15,133.53,12,23.36,3.15,29.48,27,51.14,32.06,29.49,6.85,59.47-25.09,88.27-29" transform="translate(-41.44 -50.02)"/><path class="f7a86049-5f0f-434d-b8c8-22eb287164e2" d="M44.8,204.5c30.54-2.23,58.38-17.22,89.31-15.64,43.63,2.23,87.58,12.18,131,17.1,23,2.61,31.91,23.82,53.54,27.84,30.74,5.71,58.88-25.24,88.74-29.3" transform="translate(-41.44 -50.02)"/><path class="f7a86049-5f0f-434d-b8c8-22eb287164e2" d="M45.15,209.94c30.32-2.7,59.06-16.35,89.73-14.79,42.48,2.15,85.89,10.25,128.09,15.62,22.95,2.91,34.25,23.76,56.13,27.66,30.34,5.41,58.84-24.13,88.29-28.5" transform="translate(-41.44 -50.02)"/><path class="f7a86049-5f0f-434d-b8c8-22eb287164e2" d="M46.14,215.39c31.55-2.86,62.18-14.48,94.05-12.53,39.54,2.42,80.29,6.91,119.52,12.29,22.85,3.13,36.29,21.59,58,26.31,30.71,6.67,60-21.57,89.7-26.09" transform="translate(-41.44 -50.02)"/><path class="f7a86049-5f0f-434d-b8c8-22eb287164e2" d="M47.66,220.86c31.69-2.47,63.16-10.84,95-9.63,37.52,1.41,76.57,3.24,113.82,7.87,23.59,2.93,39.88,20.59,62.58,25,30.49,5.89,58.66-19.07,88.29-23.28" transform="translate(-41.44 -50.02)"/><path class="f7a86049-5f0f-434d-b8c8-22eb287164e2" d="M49.6,226.33C117.1,222.61,185.4,216,253,222.84c24.66,2.5,43.84,19.14,67.82,23.18,30.08,5.08,57.18-16.13,86.55-19.78" transform="translate(-41.44 -50.02)"/><path class="f7a86049-5f0f-434d-b8c8-22eb287164e2" d="M51.84,231.81c32.52-.83,65.06-.53,97.57-1.78,32.78-1.27,67.2-5.8,99.93-3.5,25.91,1.83,48.2,16.46,73.51,20.94,28.91,5.12,56.1-12.94,84.54-15.79" transform="translate(-41.44 -50.02)"/><path class="f7a86049-5f0f-434d-b8c8-22eb287164e2" d="M54.27,237.29c32.92.27,66.16,5.72,99,2.79,30.33-2.7,61.83-10.77,92.29-9.75,27.26.92,52.67,14,79.44,18.29,28,4.44,54.61-9.53,82.37-11.5" transform="translate(-41.44 -50.02)"/><path class="f7a86049-5f0f-434d-b8c8-22eb287164e2" d="M56.79,242.78c33,1.41,67.6,12.34,100.53,7.54,28-4.07,56.17-15.73,84.53-15.93,28.63-.2,57.16,11.48,85.43,15.26,27.08,3.63,53.13-6,80.11-7.1" transform="translate(-41.44 -50.02)"/><path class="f7a86049-5f0f-434d-b8c8-22eb287164e2" d="M59.29,248.26c33.65,2.6,71.44,19.63,104.87,11.64,24.14-5.77,48.83-21,73.77-21.73,28.77-.79,59.67,8.77,88.28,12.22,27.28,3.29,53.89-2.2,81.18-2.4" transform="translate(-41.44 -50.02)"/><path class="f7a86049-5f0f-434d-b8c8-22eb287164e2" d="M61.65,253.74c33.79,3.62,72.53,25.06,106.14,16.08,22.74-6.08,42.74-25.08,66.7-26.63,30-2,63.66,6.05,93.73,8.7,26.37,2.32,52.74.91,79.17,1.54" transform="translate(-41.44 -50.02)"/><path class="f7a86049-5f0f-434d-b8c8-22eb287164e2" d="M63.76,259.22c32.95,4.32,74.67,30.95,107.34,20.18,21.29-7,37.26-28.14,60.36-30.43,31.17-3.08,67.16,3.15,98.61,4.91,25.79,1.43,51.52,3.69,77.32,5" transform="translate(-41.44 -50.02)"/><path class="f7a86049-5f0f-434d-b8c8-22eb287164e2" d="M65.51,264.69c32.15,4.73,76.61,35.85,108.43,23.79,20.27-7.69,32.36-30,55.05-32.78,32.33-4,69.92.08,102.7.84,25.64.6,50.22,6,75.7,7.76" transform="translate(-41.44 -50.02)"/><path class="f7a86049-5f0f-434d-b8c8-22eb287164e2" d="M66.8,270.15c21.42,3.29,39.67,11.14,59.73,19,15.24,6,33.32,14.32,49.64,7.73,19.68-7.95,28.41-30.26,51-33.33,33.58-4.58,71.69-3.13,105.77-3.45,25.87-.25,49,7.7,74.41,9.65" transform="translate(-41.44 -50.02)"/><path class="f7a86049-5f0f-434d-b8c8-22eb287164e2" d="M67.51,275.6c21.82,3.24,39.9,11.65,60.12,20,14.77,6.14,33.78,15.12,50,8.76,19.54-7.66,25.86-28.81,48.6-31.76,34.92-4.53,72.36-6.39,107.65-7.95,26.27-1.16,47.89,8.69,73.51,10.48" transform="translate(-41.44 -50.02)"/><path class="f7a86049-5f0f-434d-b8c8-22eb287164e2" d="M67.53,281c21.9,3.17,39.93,11.67,60.17,20.14,14.68,6.14,33.93,15.12,50.18,9.18,19.54-7.14,25.56-27,48.17-29.75,35.43-4.37,72.12-8.15,107.81-10.53,26.56-1.76,47.71,8.84,73.53,10.53" transform="translate(-41.44 -50.02)"/><path class="f7a86049-5f0f-434d-b8c8-22eb287164e2" d="M66.87,286.46c21.64,3.23,39.82,11.37,60,19.49,14.85,6,33.78,14.61,50.07,8.85,19.39-6.86,26.65-25.77,48.75-28.75,34.89-4.7,70.84-8.7,106-11.58,27.3-2.24,49.18,9.26,75.73,11.58" transform="translate(-41.44 -50.02)"/><path class="f7a86049-5f0f-434d-b8c8-22eb287164e2" d="M65.62,291.88c32.76,4.76,76.59,37.56,109.59,26.66,19.32-6.38,28.19-23.9,49.74-27.05,34-5,68.58-9.77,102.78-13.49,28.46-3.09,52,10.21,79.66,13.49" transform="translate(-41.44 -50.02)"/><path class="f7a86049-5f0f-434d-b8c8-22eb287164e2" d="M63.89,297.28c33.22,4.48,75.54,34.42,109,24.44C192.19,316,203,300.27,224,296.92c32.84-5.24,65.67-11.17,98.59-15.94,29.62-4.28,56,11.55,84.84,15.94" transform="translate(-41.44 -50.02)"/><path class="f7a86049-5f0f-434d-b8c8-22eb287164e2" d="M61.8,302.68c33.78,4,74.28,30.62,108.32,21.78,19.14-5,32.63-18.09,52.65-22.1,31.24-6.25,62.48-12.74,93.8-18.62,30.47-5.73,61.06,13.14,90.82,18.62" transform="translate(-41.44 -50.02)"/><path class="f7a86049-5f0f-434d-b8c8-22eb287164e2" d="M59.46,308.07c34.33,3.43,73,26.37,107.55,18.83,19.13-4.17,34.89-15.14,54.42-19.1,29.79-6.05,59.22-14.26,88.81-21.22,30.88-7.25,66.83,14.84,97.15,21.22" transform="translate(-41.44 -50.02)"/><path class="f7a86049-5f0f-434d-b8c8-22eb287164e2" d="M57,313.46c34.24,2.6,69.77,20.78,104.24,16.08,20-2.73,38.43-13.08,58.5-16.85,29.56-5.56,57.76-17.82,87.24-23.68,30.9-6.14,70.13,17.3,100.44,24.22" transform="translate(-41.44 -50.02)"/><path class="f7a86049-5f0f-434d-b8c8-22eb287164e2" d="M54.45,318.85c34.32,1.85,68.9,16.44,103.38,12.83,20.1-2.11,40.38-9.86,60.31-13.67,28.29-5.41,55-18.65,83.05-25.09,17-3.9,33.39,3.64,49.56,9,18.81,6.23,37.35,12.14,56.64,16.76" transform="translate(-41.44 -50.02)"/><path class="f7a86049-5f0f-434d-b8c8-22eb287164e2" d="M52,324.24c34.23,1.11,68.22,12.28,102.55,9.67,20.34-1.54,42.06-6.78,62.1-10.54,27.11-5.1,52.66-21.43,79.86-25.47,34.39-5.12,77,18.05,110.88,26.21" transform="translate(-41.44 -50.02)"/><path class="f7a86049-5f0f-434d-b8c8-22eb287164e2" d="M49.74,329.64c34,.46,67.7,8.47,101.78,6.74a541.78,541.78,0,0,0,63.79-7.6c26.57-4.64,51.48-20.49,78.08-24.49,35-5.27,79.42,17.21,114,25.25" transform="translate(-41.44 -50.02)"/><path class="f7a86049-5f0f-434d-b8c8-22eb287164e2" d="M47.78,335c55.78-.05,110.77,7.53,166.44-.78,26.5-3.95,51.59-18.26,78.08-21.85,35.72-4.83,79.75,15.1,115.09,22.57" transform="translate(-41.44 -50.02)"/><path class="f7a86049-5f0f-434d-b8c8-22eb287164e2" d="M46.23,340.44c55.46-.55,112.32,6.36,167.64,0,27.65-3.19,54.61-16.08,82.36-18.41,35.4-3,76.27,12.36,111.16,18.41" transform="translate(-41.44 -50.02)"/><path class="f7a86049-5f0f-434d-b8c8-22eb287164e2" d="M45.2,345.86c55.84-.57,112.3,3.41,168.08,0,29.25-1.78,58.28-9.77,87.56-11,35-1.48,71.77,7.15,106.55,11" transform="translate(-41.44 -50.02)"/><path class="f7a86049-5f0f-434d-b8c8-22eb287164e2" d="M44.8,351.29c120.86-.12,241.73-1.12,362.59,0" transform="translate(-41.44 -50.02)"/></g><circle class="e90324ae-7e17-49c5-ba7c-d248401ce46e" cx="220.95" cy="205.96" r="148.64" transform="translate(-122.36 166.54) rotate(-45)"/><rect class="b46b8b8d-bac1-4ce2-b310-42c0edf32f59" x="482.8" y="216.39" width="21.23" height="21.23"/><rect class="b46b8b8d-bac1-4ce2-b310-42c0edf32f59" x="504.03" y="216.39" width="21.23" height="21.23"/><rect class="b46b8b8d-bac1-4ce2-b310-42c0edf32f59" x="525.26" y="216.39" width="21.23" height="21.23"/><rect class="b46b8b8d-bac1-4ce2-b310-42c0edf32f59" x="546.48" y="216.39" width="21.23" height="21.23"/><rect class="b46b8b8d-bac1-4ce2-b310-42c0edf32f59" x="567.71" y="216.39" width="21.23" height="21.23"/><rect class="b46b8b8d-bac1-4ce2-b310-42c0edf32f59" x="588.94" y="216.39" width="21.23" height="21.23"/><rect class="b46b8b8d-bac1-4ce2-b310-42c0edf32f59" x="482.8" y="237.62" width="21.23" height="21.23"/><rect class="b46b8b8d-bac1-4ce2-b310-42c0edf32f59" x="504.03" y="237.62" width="21.23" height="21.23"/><rect class="b46b8b8d-bac1-4ce2-b310-42c0edf32f59" x="525.26" y="237.62" width="21.23" height="21.23"/><rect class="b46b8b8d-bac1-4ce2-b310-42c0edf32f59" x="546.48" y="237.62" width="21.23" height="21.23"/><rect class="b46b8b8d-bac1-4ce2-b310-42c0edf32f59" x="567.71" y="237.62" width="21.23" height="21.23"/><rect class="b46b8b8d-bac1-4ce2-b310-42c0edf32f59" x="588.94" y="237.62" width="21.23" height="21.23"/><rect class="b46b8b8d-bac1-4ce2-b310-42c0edf32f59" x="482.8" y="258.84" width="21.23" height="21.23"/><rect class="b46b8b8d-bac1-4ce2-b310-42c0edf32f59" x="504.03" y="258.84" width="21.23" height="21.23"/><rect class="b46b8b8d-bac1-4ce2-b310-42c0edf32f59" x="525.26" y="258.84" width="21.23" height="21.23"/><rect class="b46b8b8d-bac1-4ce2-b310-42c0edf32f59" x="546.48" y="258.84" width="21.23" height="21.23"/><rect class="b46b8b8d-bac1-4ce2-b310-42c0edf32f59" x="567.71" y="258.84" width="21.23" height="21.23"/><rect class="b46b8b8d-bac1-4ce2-b310-42c0edf32f59" x="588.94" y="258.84" width="21.23" height="21.23"/><rect class="b46b8b8d-bac1-4ce2-b310-42c0edf32f59" x="482.8" y="280.07" width="21.23" height="21.23"/><rect class="b46b8b8d-bac1-4ce2-b310-42c0edf32f59" x="504.03" y="280.07" width="21.23" height="21.23"/><rect class="b46b8b8d-bac1-4ce2-b310-42c0edf32f59" x="525.26" y="280.07" width="21.23" height="21.23"/><rect class="b46b8b8d-bac1-4ce2-b310-42c0edf32f59" x="546.48" y="280.07" width="21.23" height="21.23"/><rect class="b46b8b8d-bac1-4ce2-b310-42c0edf32f59" x="567.71" y="280.07" width="21.23" height="21.23"/><rect class="b46b8b8d-bac1-4ce2-b310-42c0edf32f59" x="588.94" y="280.07" width="21.23" height="21.23"/><rect class="b46b8b8d-bac1-4ce2-b310-42c0edf32f59" x="482.8" y="301.3" width="21.23" height="21.23"/><rect class="b46b8b8d-bac1-4ce2-b310-42c0edf32f59" x="504.03" y="301.3" width="21.23" height="21.23"/><rect class="b46b8b8d-bac1-4ce2-b310-42c0edf32f59" x="525.26" y="301.3" width="21.23" height="21.23"/><rect class="b46b8b8d-bac1-4ce2-b310-42c0edf32f59" x="546.48" y="301.3" width="21.23" height="21.23"/><rect class="b46b8b8d-bac1-4ce2-b310-42c0edf32f59" x="567.71" y="301.3" width="21.23" height="21.23"/><rect class="b46b8b8d-bac1-4ce2-b310-42c0edf32f59" x="588.94" y="301.3" width="21.23" height="21.23"/><rect class="b46b8b8d-bac1-4ce2-b310-42c0edf32f59" x="482.8" y="322.52" width="21.23" height="21.23"/><rect class="b46b8b8d-bac1-4ce2-b310-42c0edf32f59" x="504.03" y="322.52" width="21.23" height="21.23"/><rect class="b46b8b8d-bac1-4ce2-b310-42c0edf32f59" x="525.26" y="322.52" width="21.23" height="21.23"/><rect class="b46b8b8d-bac1-4ce2-b310-42c0edf32f59" x="546.48" y="322.52" width="21.23" height="21.23"/><rect class="b46b8b8d-bac1-4ce2-b310-42c0edf32f59" x="567.71" y="322.52" width="21.23" height="21.23"/><rect class="b46b8b8d-bac1-4ce2-b310-42c0edf32f59" x="588.94" y="322.52" width="21.23" height="21.23"/><g class="fa93c30f-0649-4375-972a-165613141ae0"><path class="feacbe8d-7b4e-4098-b610-538b0eb9f00d" d="M462.64,241.42a12.4,12.4,0,0,0-2.95,12.47c2.11,7.61,9.8,13,17.13,12.07a11.38,11.38,0,0,0,6.5-3.06L596.4,153.36c-1.67,1.62-4.34,3.54-6.94,3.88-7.33,1-15-4.46-17.13-12.07-1.37-4.9-.09-9.54,2.95-12.47Z" transform="translate(-41.44 -50.02)"/><path class="feacbe8d-7b4e-4098-b610-538b0eb9f00d" d="M462.81,241.6a11.17,11.17,0,0,1,6.39-3c7.21-.94,14.77,4.39,16.85,11.87A13.11,13.11,0,0,1,483,263.19L595.79,154c3-2.89,4.24-7.45,2.9-12.28-2.08-7.48-9.64-12.81-16.85-11.87a11.29,11.29,0,0,0-6.4,3" transform="translate(-41.44 -50.02)"/></g><line class="f7d5de06-aaa8-4d2c-96c5-47bfebeb907b" x1="399.38" y1="318.12" x2="430.62" y2="318.12"/><line class="f7d5de06-aaa8-4d2c-96c5-47bfebeb907b" x1="457.47" y1="260.03" x2="457.47" y2="291.27"/><line class="f7d5de06-aaa8-4d2c-96c5-47bfebeb907b" x1="457.47" y1="344.98" x2="457.47" y2="376.21"/><line class="f7d5de06-aaa8-4d2c-96c5-47bfebeb907b" x1="416.4" y1="277.05" x2="438.48" y2="299.13"/><line class="f7d5de06-aaa8-4d2c-96c5-47bfebeb907b" x1="438.48" y1="337.11" x2="416.4" y2="359.2"/><line class="f7d5de06-aaa8-4d2c-96c5-47bfebeb907b" x1="403.58" y1="296.44" x2="432.56" y2="308.1"/><line class="f7d5de06-aaa8-4d2c-96c5-47bfebeb907b" x1="447.45" y1="343.04" x2="435.78" y2="372.01"/><line class="f7d5de06-aaa8-4d2c-96c5-47bfebeb907b" x1="434.7" y1="264.68" x2="446.94" y2="293.42"/><line class="f7d5de06-aaa8-4d2c-96c5-47bfebeb907b" x1="432.77" y1="328.65" x2="404.03" y2="340.89"/><line class="f7d5de06-aaa8-4d2c-96c5-47bfebeb907b" x1="400.63" y1="306.16" x2="431.19" y2="312.59"/><line class="f7d5de06-aaa8-4d2c-96c5-47bfebeb907b" x1="451.94" y1="344.4" x2="445.51" y2="374.97"/><line class="f7d5de06-aaa8-4d2c-96c5-47bfebeb907b" x1="425.74" y1="269.47" x2="442.8" y2="295.63"/><line class="f7d5de06-aaa8-4d2c-96c5-47bfebeb907b" x1="434.98" y1="332.79" x2="408.82" y2="349.86"/><line class="f7d5de06-aaa8-4d2c-96c5-47bfebeb907b" x1="409.2" y1="285.8" x2="435.16" y2="303.18"/><line class="f7d5de06-aaa8-4d2c-96c5-47bfebeb907b" x1="442.53" y1="340.44" x2="425.15" y2="366.39"/><line class="f7d5de06-aaa8-4d2c-96c5-47bfebeb907b" x1="446.19" y1="261.14" x2="452.26" y2="291.78"/><line class="f7d5de06-aaa8-4d2c-96c5-47bfebeb907b" x1="431.13" y1="323.34" x2="400.49" y2="329.4"/><line class="e90324ae-7e17-49c5-ba7c-d248401ce46e" x1="399.38" y1="14.59" x2="411.22" y2="26.43"/><line class="e90324ae-7e17-49c5-ba7c-d248401ce46e" x1="411.22" y1="14.59" x2="399.38" y2="26.43"/><line class="e90324ae-7e17-49c5-ba7c-d248401ce46e" x1="436.95" y1="14.59" x2="448.79" y2="26.43"/><line class="e90324ae-7e17-49c5-ba7c-d248401ce46e" x1="448.79" y1="14.59" x2="436.95" y2="26.43"/><line class="e90324ae-7e17-49c5-ba7c-d248401ce46e" x1="474.52" y1="14.59" x2="486.35" y2="26.43"/><line class="e90324ae-7e17-49c5-ba7c-d248401ce46e" x1="486.35" y1="14.59" x2="474.52" y2="26.43"/><line class="e90324ae-7e17-49c5-ba7c-d248401ce46e" x1="512.08" y1="14.59" x2="523.92" y2="26.43"/><line class="e90324ae-7e17-49c5-ba7c-d248401ce46e" x1="523.92" y1="14.59" x2="512.08" y2="26.43"/><line class="e90324ae-7e17-49c5-ba7c-d248401ce46e" x1="399.38" y1="47.5" x2="411.22" y2="59.34"/><line class="e90324ae-7e17-49c5-ba7c-d248401ce46e" x1="411.22" y1="47.5" x2="399.38" y2="59.34"/><line class="e90324ae-7e17-49c5-ba7c-d248401ce46e" x1="436.95" y1="47.5" x2="448.79" y2="59.34"/><line class="e90324ae-7e17-49c5-ba7c-d248401ce46e" x1="448.79" y1="47.5" x2="436.95" y2="59.34"/><line class="e90324ae-7e17-49c5-ba7c-d248401ce46e" x1="474.52" y1="47.5" x2="486.35" y2="59.34"/><line class="e90324ae-7e17-49c5-ba7c-d248401ce46e" x1="486.35" y1="47.5" x2="474.52" y2="59.34"/><line class="e90324ae-7e17-49c5-ba7c-d248401ce46e" x1="512.08" y1="47.5" x2="523.92" y2="59.34"/><line class="e90324ae-7e17-49c5-ba7c-d248401ce46e" x1="523.92" y1="47.5" x2="512.08" y2="59.34"/><line class="e90324ae-7e17-49c5-ba7c-d248401ce46e" x1="399.38" y1="80.41" x2="411.22" y2="92.25"/><line class="e90324ae-7e17-49c5-ba7c-d248401ce46e" x1="411.22" y1="80.41" x2="399.38" y2="92.25"/><line class="e90324ae-7e17-49c5-ba7c-d248401ce46e" x1="436.95" y1="80.41" x2="448.79" y2="92.25"/><line class="e90324ae-7e17-49c5-ba7c-d248401ce46e" x1="448.79" y1="80.41" x2="436.95" y2="92.25"/><line class="e90324ae-7e17-49c5-ba7c-d248401ce46e" x1="474.52" y1="80.41" x2="486.35" y2="92.25"/><line class="e90324ae-7e17-49c5-ba7c-d248401ce46e" x1="486.35" y1="80.41" x2="474.52" y2="92.25"/><line class="e90324ae-7e17-49c5-ba7c-d248401ce46e" x1="512.08" y1="80.41" x2="523.92" y2="92.25"/><line class="e90324ae-7e17-49c5-ba7c-d248401ce46e" x1="523.92" y1="80.41" x2="512.08" y2="92.25"/><line class="e90324ae-7e17-49c5-ba7c-d248401ce46e" x1="399.38" y1="113.32" x2="411.22" y2="125.16"/><line class="e90324ae-7e17-49c5-ba7c-d248401ce46e" x1="411.22" y1="113.32" x2="399.38" y2="125.16"/><line class="e90324ae-7e17-49c5-ba7c-d248401ce46e" x1="436.95" y1="113.32" x2="448.79" y2="125.16"/><line class="e90324ae-7e17-49c5-ba7c-d248401ce46e" x1="448.79" y1="113.32" x2="436.95" y2="125.16"/><line class="e90324ae-7e17-49c5-ba7c-d248401ce46e" x1="474.52" y1="113.32" x2="486.35" y2="125.16"/><line class="e90324ae-7e17-49c5-ba7c-d248401ce46e" x1="486.35" y1="113.32" x2="474.52" y2="125.16"/><line class="e90324ae-7e17-49c5-ba7c-d248401ce46e" x1="512.08" y1="113.32" x2="523.92" y2="125.16"/><line class="e90324ae-7e17-49c5-ba7c-d248401ce46e" x1="523.92" y1="113.32" x2="512.08" y2="125.16"/><circle class="f7d5de06-aaa8-4d2c-96c5-47bfebeb907b" cx="134.81" cy="363.51" r="72.9" transform="translate(-259 151.77) rotate(-45)"/><circle class="a42ab279-47e5-4bd0-955b-22a863a323e1" cx="130.44" cy="369.88" r="62.25" transform="translate(-296.82 390.36) rotate(-80.93)"/><circle class="ac21e7f5-ab71-4c8f-9eec-8a95358eac07" cx="126.07" cy="376.25" r="51.6" transform="translate(-306.15 395.14) rotate(-81.48)"/><circle class="ab67ae43-73b1-41e0-8af3-2c2a9e923ab0" cx="121.7" cy="382.62" r="40.94" transform="matrix(0.13, -0.99, 0.99, 0.13, -315.1, 402.62)"/><circle class="ecba43f4-315a-4a61-b270-04a1cef88543" cx="117.33" cy="388.99" r="30.29" transform="translate(-322.87 416.91) rotate(-84.28)"/><circle class="e90324ae-7e17-49c5-ba7c-d248401ce46e" cx="71.51" cy="345.34" r="19.64"/><line class="aadb627f-0486-4a26-9163-28f23de4234b" x1="532.97" y1="377.86" x2="544.52" y2="363.34"/><line class="aadb627f-0486-4a26-9163-28f23de4234b" x1="538.74" y1="377.86" x2="550.3" y2="363.34"/><line class="aadb627f-0486-4a26-9163-28f23de4234b" x1="544.52" y1="377.86" x2="556.07" y2="363.34"/><line class="aadb627f-0486-4a26-9163-28f23de4234b" x1="550.3" y1="377.86" x2="561.85" y2="363.34"/><line class="aadb627f-0486-4a26-9163-28f23de4234b" x1="556.07" y1="377.86" x2="567.62" y2="363.34"/><line class="aadb627f-0486-4a26-9163-28f23de4234b" x1="561.85" y1="377.86" x2="573.4" y2="363.34"/><line class="aadb627f-0486-4a26-9163-28f23de4234b" x1="567.62" y1="377.86" x2="579.18" y2="363.34"/><line class="aadb627f-0486-4a26-9163-28f23de4234b" x1="573.4" y1="377.86" x2="584.95" y2="363.34"/><line class="aadb627f-0486-4a26-9163-28f23de4234b" x1="579.18" y1="377.86" x2="590.73" y2="363.34"/><line class="aadb627f-0486-4a26-9163-28f23de4234b" x1="584.95" y1="377.86" x2="596.51" y2="363.34"/><line class="aadb627f-0486-4a26-9163-28f23de4234b" x1="590.73" y1="377.86" x2="602.28" y2="363.34"/><line class="aadb627f-0486-4a26-9163-28f23de4234b" x1="596.51" y1="377.86" x2="608.06" y2="363.34"/><line class="aadb627f-0486-4a26-9163-28f23de4234b" x1="602.28" y1="377.86" x2="613.84" y2="363.34"/><line class="aadb627f-0486-4a26-9163-28f23de4234b" x1="608.06" y1="377.86" x2="619.61" y2="363.34"/><line class="aadb627f-0486-4a26-9163-28f23de4234b" x1="613.84" y1="377.86" x2="625.39" y2="363.34"/><line class="aadb627f-0486-4a26-9163-28f23de4234b" x1="619.61" y1="377.86" x2="631.17" y2="363.34"/><line class="aadb627f-0486-4a26-9163-28f23de4234b" x1="625.39" y1="377.86" x2="636.94" y2="363.34"/><line class="aadb627f-0486-4a26-9163-28f23de4234b" x1="631.17" y1="377.86" x2="642.72" y2="363.34"/><line class="aadb627f-0486-4a26-9163-28f23de4234b" x1="636.94" y1="377.86" x2="648.49" y2="363.34"/><circle class="e90324ae-7e17-49c5-ba7c-d248401ce46e" cx="382.63" cy="297.2" r="58.2" transform="translate(-139.52 307.58) rotate(-45)"/><line class="e90324ae-7e17-49c5-ba7c-d248401ce46e" x1="341.19" y1="242.35" x2="341.19" y2="251.99"/><line class="e90324ae-7e17-49c5-ba7c-d248401ce46e" x1="346" y1="247.17" x2="336.37" y2="247.17"/><g class="bf61ab89-34f2-4bf2-8b60-bd7d24cd0622"><line class="e90324ae-7e17-49c5-ba7c-d248401ce46e" x1="207.94" y1="358.77" x2="247.58" y2="281.76"/><line class="e90324ae-7e17-49c5-ba7c-d248401ce46e" x1="212.1" y1="362.93" x2="251.74" y2="285.92"/><line class="e90324ae-7e17-49c5-ba7c-d248401ce46e" x1="216.25" y1="367.09" x2="255.9" y2="290.08"/><line class="e90324ae-7e17-49c5-ba7c-d248401ce46e" x1="220.41" y1="371.25" x2="260.06" y2="294.24"/><line class="e90324ae-7e17-49c5-ba7c-d248401ce46e" x1="224.57" y1="375.4" x2="264.22" y2="298.4"/><line class="e90324ae-7e17-49c5-ba7c-d248401ce46e" x1="228.73" y1="379.56" x2="268.38" y2="302.55"/><line class="e90324ae-7e17-49c5-ba7c-d248401ce46e" x1="232.89" y1="383.72" x2="272.54" y2="306.71"/><line class="e90324ae-7e17-49c5-ba7c-d248401ce46e" x1="237.05" y1="387.88" x2="276.7" y2="310.87"/><line class="e90324ae-7e17-49c5-ba7c-d248401ce46e" x1="241.21" y1="392.04" x2="280.85" y2="315.03"/><line class="e90324ae-7e17-49c5-ba7c-d248401ce46e" x1="245.37" y1="396.2" x2="285.01" y2="319.19"/><line class="e90324ae-7e17-49c5-ba7c-d248401ce46e" x1="249.53" y1="400.36" x2="289.17" y2="323.35"/><line class="e90324ae-7e17-49c5-ba7c-d248401ce46e" x1="253.69" y1="404.52" x2="293.33" y2="327.51"/><line class="e90324ae-7e17-49c5-ba7c-d248401ce46e" x1="257.85" y1="408.68" x2="297.49" y2="331.67"/><line class="e90324ae-7e17-49c5-ba7c-d248401ce46e" x1="262" y1="412.84" x2="301.65" y2="335.83"/><line class="e90324ae-7e17-49c5-ba7c-d248401ce46e" x1="266.16" y1="417" x2="305.81" y2="339.99"/><line class="e90324ae-7e17-49c5-ba7c-d248401ce46e" x1="270.32" y1="421.15" x2="309.97" y2="344.15"/></g><polygon class="e90324ae-7e17-49c5-ba7c-d248401ce46e" points="275.52 312.46 258.14 329.84 240.76 312.46 220.14 333.08 237.52 350.46 220.14 367.84 240.76 388.47 258.14 371.09 275.52 388.47 296.14 367.84 278.76 350.46 296.14 333.08 275.52 312.46"/><path class="bb4c7a55-1020-4b74-aa3a-6a97613b7e4b" d="M566.28,232.09l5.28,3.3a10,10,0,0,0,10.58,0h0a10,10,0,0,1,10.57,0h0a10,10,0,0,0,10.57,0h0a10,10,0,0,1,10.57,0l5.29,3.31" transform="translate(-41.44 -50.02)"/><path class="bb4c7a55-1020-4b74-aa3a-6a97613b7e4b" d="M566.28,214.45l5.28,3.3a10,10,0,0,0,10.58,0h0a10,10,0,0,1,10.57,0h0a10,10,0,0,0,10.57,0h0a10,10,0,0,1,10.57,0l5.29,3.31" transform="translate(-41.44 -50.02)"/><circle class="ec027844-539a-45de-bb57-3177e91edd24" cx="652.83" cy="103.44" r="47.38" transform="translate(360.73 665.02) rotate(-76.72)"/><circle class="ec027844-539a-45de-bb57-3177e91edd24" cx="652.83" cy="103.44" r="31.9" transform="translate(360.73 665.02) rotate(-76.72)"/><circle class="ec027844-539a-45de-bb57-3177e91edd24" cx="652.83" cy="103.44" r="16.41" transform="translate(360.73 665.02) rotate(-76.72)"/><circle class="bf884328-92bf-4bae-b5e2-8f7d8e9017e8" cx="1.06" cy="65.04" r="1.06"/><circle class="bf884328-92bf-4bae-b5e2-8f7d8e9017e8" cx="1.06" cy="73.66" r="1.06"/><circle class="bf884328-92bf-4bae-b5e2-8f7d8e9017e8" cx="1.06" cy="82.27" r="1.06"/><path class="bf884328-92bf-4bae-b5e2-8f7d8e9017e8" d="M43.55,140.91a1.06,1.06,0,1,1-1-1.06A1.06,1.06,0,0,1,43.55,140.91Z" transform="translate(-41.44 -50.02)"/><path class="bf884328-92bf-4bae-b5e2-8f7d8e9017e8" d="M43.55,149.52a1.06,1.06,0,1,1-1-1.05A1.05,1.05,0,0,1,43.55,149.52Z" transform="translate(-41.44 -50.02)"/><circle class="bf884328-92bf-4bae-b5e2-8f7d8e9017e8" cx="7.82" cy="13.36" r="1.06"/><circle class="bf884328-92bf-4bae-b5e2-8f7d8e9017e8" cx="7.82" cy="21.98" r="1.06"/><circle class="bf884328-92bf-4bae-b5e2-8f7d8e9017e8" cx="7.82" cy="30.59" r="1.06"/><circle class="bf884328-92bf-4bae-b5e2-8f7d8e9017e8" cx="7.82" cy="39.2" r="1.06"/><path class="bf884328-92bf-4bae-b5e2-8f7d8e9017e8" d="M50.32,97.84a1.06,1.06,0,1,1-2.11,0,1.06,1.06,0,0,1,2.11,0Z" transform="translate(-41.44 -50.02)"/><path class="bf884328-92bf-4bae-b5e2-8f7d8e9017e8" d="M50.32,106.46a1.06,1.06,0,1,1-1.06-1.06A1.05,1.05,0,0,1,50.32,106.46Z" transform="translate(-41.44 -50.02)"/><circle class="bf884328-92bf-4bae-b5e2-8f7d8e9017e8" cx="7.82" cy="65.04" r="1.06"/><circle class="bf884328-92bf-4bae-b5e2-8f7d8e9017e8" cx="7.82" cy="73.66" r="1.06"/><circle class="bf884328-92bf-4bae-b5e2-8f7d8e9017e8" cx="7.82" cy="82.27" r="1.06"/><path class="bf884328-92bf-4bae-b5e2-8f7d8e9017e8" d="M50.32,140.91a1.06,1.06,0,1,1-1.06-1.06A1.06,1.06,0,0,1,50.32,140.91Z" transform="translate(-41.44 -50.02)"/><path class="bf884328-92bf-4bae-b5e2-8f7d8e9017e8" d="M50.32,149.52a1.06,1.06,0,1,1-1.06-1.05A1.05,1.05,0,0,1,50.32,149.52Z" transform="translate(-41.44 -50.02)"/><path class="bf884328-92bf-4bae-b5e2-8f7d8e9017e8" d="M57.09,63.39A1.06,1.06,0,1,1,56,62.33,1.06,1.06,0,0,1,57.09,63.39Z" transform="translate(-41.44 -50.02)"/><path class="bf884328-92bf-4bae-b5e2-8f7d8e9017e8" d="M57.09,72A1.06,1.06,0,1,1,56,70.94,1.07,1.07,0,0,1,57.09,72Z" transform="translate(-41.44 -50.02)"/><path class="bf884328-92bf-4bae-b5e2-8f7d8e9017e8" d="M57.09,80.61a1.06,1.06,0,1,1-1.06-1A1.06,1.06,0,0,1,57.09,80.61Z" transform="translate(-41.44 -50.02)"/><path class="bf884328-92bf-4bae-b5e2-8f7d8e9017e8" d="M57.09,89.23A1.06,1.06,0,1,1,56,88.17,1.06,1.06,0,0,1,57.09,89.23Z" transform="translate(-41.44 -50.02)"/><path class="bf884328-92bf-4bae-b5e2-8f7d8e9017e8" d="M57.09,97.84a1.06,1.06,0,1,1-1.06-1A1.07,1.07,0,0,1,57.09,97.84Z" transform="translate(-41.44 -50.02)"/><path class="bf884328-92bf-4bae-b5e2-8f7d8e9017e8" d="M57.09,106.46A1.06,1.06,0,1,1,56,105.4,1.06,1.06,0,0,1,57.09,106.46Z" transform="translate(-41.44 -50.02)"/><path class="bf884328-92bf-4bae-b5e2-8f7d8e9017e8" d="M57.09,115.07A1.06,1.06,0,1,1,56,114,1.06,1.06,0,0,1,57.09,115.07Z" transform="translate(-41.44 -50.02)"/><path class="bf884328-92bf-4bae-b5e2-8f7d8e9017e8" d="M63.85,80.61a1.06,1.06,0,1,1-1.05-1A1.05,1.05,0,0,1,63.85,80.61Z" transform="translate(-41.44 -50.02)"/><path class="bf884328-92bf-4bae-b5e2-8f7d8e9017e8" d="M63.85,89.23a1.06,1.06,0,1,1-1.05-1.06A1,1,0,0,1,63.85,89.23Z" transform="translate(-41.44 -50.02)"/><path class="bf884328-92bf-4bae-b5e2-8f7d8e9017e8" d="M63.85,97.84a1.06,1.06,0,1,1-1.05-1A1.06,1.06,0,0,1,63.85,97.84Z" transform="translate(-41.44 -50.02)"/><path class="bf884328-92bf-4bae-b5e2-8f7d8e9017e8" d="M63.85,106.46a1.06,1.06,0,1,1-1.05-1.06A1,1,0,0,1,63.85,106.46Z" transform="translate(-41.44 -50.02)"/><path class="bf884328-92bf-4bae-b5e2-8f7d8e9017e8" d="M63.85,115.07a1.06,1.06,0,0,1-2.11,0,1.06,1.06,0,1,1,2.11,0Z" transform="translate(-41.44 -50.02)"/><circle class="bf884328-92bf-4bae-b5e2-8f7d8e9017e8" cx="28.13" cy="30.59" r="1.06"/><circle class="bf884328-92bf-4bae-b5e2-8f7d8e9017e8" cx="28.13" cy="39.2" r="1.06"/><path class="bf884328-92bf-4bae-b5e2-8f7d8e9017e8" d="M70.62,97.84a1.06,1.06,0,1,1-1.05-1A1.06,1.06,0,0,1,70.62,97.84Z" transform="translate(-41.44 -50.02)"/><path class="bf884328-92bf-4bae-b5e2-8f7d8e9017e8" d="M70.62,106.46a1.06,1.06,0,1,1-1.05-1.06A1,1,0,0,1,70.62,106.46Z" transform="translate(-41.44 -50.02)"/><circle class="bf884328-92bf-4bae-b5e2-8f7d8e9017e8" cx="28.13" cy="65.04" r="1.06"/><circle class="bf884328-92bf-4bae-b5e2-8f7d8e9017e8" cx="28.13" cy="73.66" r="1.06"/><circle class="bf884328-92bf-4bae-b5e2-8f7d8e9017e8" cx="28.13" cy="82.27" r="1.06"/></svg>